<?xml version="1.0" encoding="utf-8"?>
<!-- Generator: Adobe Illustrator 22.0.1, SVG Export Plug-In . SVG Version: 6.00 Build 0)  -->
<svg version="1.1" xmlns="http://www.w3.org/2000/svg" xmlns:xlink="http://www.w3.org/1999/xlink" x="0px" y="0px"
	 viewBox="0 0 1829 1067" style="enable-background:new 0 0 1829 1067;" xml:space="preserve">
<style type="text/css">
	.st0{opacity:0.22;}
	.st1{fill:#FFFFFF;}
	.st2{fill:#E78C00;}
	.st3{fill:#FF6859;}
	.st4{fill:#C02A26;}
	.st5{fill:#FFCE00;}
	.st6{fill:#16C9CB;}
	.st7{fill:#00A2A0;}
	.st8{fill:#009493;}
	.st9{fill:#E64B41;}
	.st10{fill:#FF6654;}
	.st11{fill:#00C8CB;}
	.st12{fill:#00ACAA;}
	.st13{fill:#F4F4F4;}
	.st14{fill:none;stroke:#000000;stroke-linecap:round;stroke-linejoin:round;stroke-miterlimit:10;}
	.st15{fill:#EFA614;}
	.st16{fill:#E44646;}
	.st17{fill:none;stroke:#E44646;stroke-linecap:round;stroke-linejoin:round;stroke-miterlimit:10;}
	.st18{fill:#FF6859;stroke:#000000;stroke-linecap:round;stroke-linejoin:round;stroke-miterlimit:10;}
	.st19{fill:none;stroke:#00ACAA;stroke-miterlimit:10;}
	.st20{fill:none;stroke:#16C9CB;stroke-linecap:round;stroke-miterlimit:10;}
	.st21{fill:#16C9CB;stroke:#000000;stroke-linecap:round;stroke-linejoin:round;stroke-miterlimit:10;}
	.st22{fill:none;stroke:#FBFBFC;stroke-linecap:round;stroke-miterlimit:10;}
	.st23{fill:none;stroke:#E78C00;stroke-linecap:round;stroke-linejoin:round;stroke-miterlimit:10;}
	.st24{fill:#EAEAEA;}
	.st25{fill:none;stroke:#EFA614;stroke-linecap:round;stroke-miterlimit:10;}
	.st26{fill:#3D5A98;}
	.st27{fill:#FBFBFC;}
	.st28{fill:#C6C6C6;}
	.st29{fill:#2E3A44;}
	.st30{fill:#5BD4D7;}
	.st31{fill:none;stroke:#2E3A44;stroke-linecap:round;stroke-linejoin:round;stroke-miterlimit:10;}
	.st32{fill:#4B5763;}
	.st33{fill:#9B9B9B;}
	.st34{fill:none;stroke:#EFA614;stroke-linecap:round;stroke-linejoin:round;stroke-miterlimit:10;}
	.st35{fill:#FF6859;stroke:#2E3A44;stroke-linecap:round;stroke-linejoin:round;stroke-miterlimit:10;}
	.st36{fill:none;stroke:#2E3A44;stroke-miterlimit:10;}
	.st37{fill:none;stroke:#85A9D7;stroke-linecap:round;stroke-miterlimit:10;}
	.st38{fill:#5BD4D7;stroke:#2E3A44;stroke-linecap:round;stroke-linejoin:round;stroke-miterlimit:10;}
	.st39{fill:none;stroke:#9B9B9B;stroke-linecap:round;stroke-miterlimit:10;}
	.st40{fill:none;stroke:#9B9B9B;stroke-linecap:round;stroke-linejoin:round;stroke-miterlimit:10;}
	.st41{fill:#FFCE00;stroke:#2E3A44;stroke-linecap:round;stroke-linejoin:round;stroke-miterlimit:10;}
	.st42{fill:none;stroke:#00ACAA;stroke-linecap:round;stroke-linejoin:round;stroke-miterlimit:10;}
	.st43{fill:none;stroke:#00ACAA;stroke-linecap:round;stroke-miterlimit:10;}
</style>
<g id="Layer_2">
</g>
<g id="Layer_3">
</g>
<g id="Layer_1">
</g>
<g id="Layer_4">
</g>
<g id="Layer_5">
	<path class="st29" d="M1126.2,531.9c0.1-2.1-0.1-4.4-1.5-5.9c-1.4-1.5-3.6-2-5.6-2.2c-8.4-0.9-17,0.8-24.3,4.9
		c-3.5,1.9-7,5.2-6.6,9.1c0.3,3.3,3.3,5.6,6.1,7.3c5,3.1,17.8,10.8,23.6,7.7C1123.9,549.6,1126,538,1126.2,531.9z"/>
	<polygon class="st5" points="1274.7,716.3 1282.7,731.6 1297.9,725.7 1289.2,710.5 	"/>
	<path class="st29" d="M1282.7,731.6l7.3,16.4l3.1-1.6l0.7-7.7c0,0,5.8,5.7,22,6.5c11.9,0.6,23.4-2.9,21.9-6.6
		c-2.3-5.5-6.7-0.3-21.5-3.8s-18.3-9.1-18.3-9.1L1282.7,731.6z"/>
	<path class="st31" d="M1299.3,727.8c2.2-5.4,5-11.5,10.6-13.1c0.9-0.3,2-0.4,2.8,0.1c2,1.2,0.8,4.4-0.8,6.1
		c-3.2,3.4-7.2,6-11.6,7.4c4.6-3.3,10.6-4.5,16.1-3.2c1.4,0.3,3,1.4,2.5,2.7c-0.3,0.9-1.4,1.1-2.3,1.3c-4.8,0.7-9.7,0.6-14.4-0.5"/>
	<path class="st31" d="M1171.5,790.8c3.7-4.5,8.3-9.4,14.1-9.2c1,0,2,0.3,2.6,1c1.5,1.8-0.6,4.4-2.7,5.5
		C1181.5,790.4,1176,789.9,1171.5,790.8c6.3-1.1,12.3-0.2,17.1,2.7c1.2,0.7,2.4,2.3,1.6,3.4c-0.6,0.7-1.6,0.7-2.5,0.5
		C1182.8,796.6,1175.7,793.2,1171.5,790.8"/>
	<path class="st32" d="M1090,533.7l130.3,48.2c7.9,2.9,14.3,8.8,18,16.3l55,113.8l-24.1,14.6l-63.2-104.9l-125.5-28L1090,533.7z"/>
	<polygon class="st29" points="1097.3,548.9 1205.9,621.8 1080.4,593.8 	"/>
	<polygon class="st5" points="1155.1,776.6 1155.1,791 1171.4,791 1171.4,774.7 	"/>
	<path class="st29" d="M1155.1,791v17.5h4.4l3.4-6.9c0,0,3.4,7.4,18.2,14c10.9,4.8,23.6,4,23.5,0c-0.1-6-6.5-1.9-19.1-10.4
		c-12.6-8.6-14.1-14.2-14.1-14.2H1155.1z"/>
	<path class="st32" d="M1090.1,541.8l91.8,90.6c7,6.9,10.5,16.5,9.5,26.3l-11.9,121l-29.9-0.2l3-118.3l-100.1-72.6L1090.1,541.8z"/>
	<path class="st29" d="M1052.4,588.6l17,12.4c0,0,12.9-5.7,17.9-22.1c2.5-8.1,3.5-18.5,4.9-26.9c1.4-8.8,5.1-15.5,5.1-15.5
		L1052.4,588.6z"/>
	<path class="st32" d="M925.2,487.5c0,0,17.5,36.5,57.3,54.7c29.2,13.3,38.6,18.2,51.2,31.2c12.6,13,13.9,20.4,13.9,20.4
		s16.1-4.3,29.1-22.6c13-18.2,16.5-32.5,25.6-40.3s19.1-7.4,19.1-7.4s-32.1-3-46-7.8c-13.9-4.8-48.2-36-53.4-45.1
		c-5.2-9.1-20.2-22.4-20.2-22.4l-64.4,12.9L925.2,487.5z"/>
	<path class="st29" d="M1321.6,569.1c0,0-7.8,2.5-4.1,11.3c3.8,8.8,21.6,35.7,28.5,34.4s1.6-18.8-5.3-29.4
		C1333.8,574.7,1329.1,566.6,1321.6,569.1z"/>
	<path class="st29" d="M1341.6,507.8c0,0-6.3,3.8-0.9,11.7s27.1,31.1,33.6,28.5c6.5-2.5-3-18.5-11.8-27.7
		C1353.7,511.2,1348.5,503.9,1341.6,507.8z"/>
	<path class="st32" d="M1344,491.7c0,0-2,9.7-2.6,15.7c-0.6,6,2.6,8.8,5.6,8.1c3.1-0.7,3.9-2.6,4.6-5.6c0.7-3,4.7-17.4,4.7-17.4
		L1344,491.7z"/>
	<path class="st30" d="M1214,389.1c0,0,3.1,28.8,20.6,39.4c17.5,10.6,28.8,8.1,46.3-3.8c17.5-11.9,15.6-23.5,15.6-23.5l48.2-18.7
		l-5,111.7c0,0,3.5,3.8,9.2,4.4c5.8,0.6,10.8-2.5,10.8-2.5s17.6-79.6,24.1-113.9c6.4-33.6-1.1-48.3-17.8-46.9
		c-18.5,1.5-65.5,15-65.5,15l-51,7.5L1214,389.1z"/>
	<path class="st12" d="M1214,389.1c0,0,3.1,28.8,20.6,39.4c17.5,10.6,28.8,8.1,46.3-3.8l-6.2-7.8c0,0-14.8,9.8-31.8,4.7
		c-24.3-7.2-24.8-29.7-24.8-29.7"/>
	<path class="st32" d="M1313.5,560.8c0,0,3.1,9.4,5.5,15c2.4,5.6,6.6,6.4,8.9,4.2c2.3-2.1,2.1-4.2,1.2-7.2c-0.9-3-4.5-17.5-4.5-17.5
		L1313.5,560.8z"/>
	<path class="st29" d="M1362.6,928.3c0,0,8.2,6.3,14,7.2c5.2,0.8,9,2.1,9.8-1.7c0.8-3.8-12.5-13-16.1-12.9c-3.6,0.1-7.7,4.7-7.7,4.7
		V928.3z"/>
	<polygon class="st5" points="1362.6,925.6 1354.1,949.1 1369.8,947.8 1383.4,923.2 1368.7,920.1 	"/>
	<path class="st32" d="M1338.1,994.6c-4-2.2-5.6-7.5-4.7-12c0.9-4.5,3.7-8.3,6.8-11.8c3-3.5,6.3-6.8,8.4-10.8
		c2.4-4.6,3.5-10.4,8-13.1c2.3-1.4,5-1.6,7.6-1.8c4.2-0.3,8.6-0.5,12.3,1.4c2.7,1.4,4.9,4.2,4.4,7.2"/>
	<path class="st29" d="M1348.6,968.9c10.6-11.9,21-22.2,27.9-21c6.9,1.3,7.5,8.1,0,17.5c-7.5,9.4-26.3,33.8-34.4,31.3
		s-7.2-11.6-4.1-16.6C1341.1,975.1,1348.6,968.9,1348.6,968.9z"/>
	<path class="st29" d="M1048.5,460.3l-46.6-12.1c-12.4-0.6-46.6,12.7-47,25.2l-9.3-10.9c-0.4,13.2,10.6,23.8,23.8,22.9l82.7,14.4
		c20.9,3,24.7-13.9,24.4-20.8l5.9-72.3l-16.2-3.4L1048.5,460.3z"/>
	<polygon class="st5" points="945.2,428.9 951,466.7 982.9,463.8 969.1,428.1 	"/>
	<polygon class="st28" points="945.5,462.5 947.8,448.2 978.2,451.7 982.9,463.8 	"/>
	<polygon class="st30" points="967.3,470.8 978.2,451.7 982.9,463.8 	"/>
	<path class="st33" d="M1282.7,305.1c0,0,36.1,26.9,41.4,30.2c6.5,4,13.7,2.7,18.5-1.9c4.5-4.3,27.9-41,27.9-41l-16.1,1.9l-19.3,6.6
		l-47.4-43.7l-30.5,4.2L1282.7,305.1z"/>
	<path class="st28" d="M1191.1,279.5c-7.1,13.3-8.4,29.6-3.3,43.8c3.6,10.2,10.3,19.2,12.9,29.6c1.6,6.3,1.6,13,2.8,19.4
		c1.1,6.4,3.7,13.1,9,16.9c7.2,5.3,17.6,3.9,25.5-0.4s14-11.2,20.9-17c11.7-9.9,25.8-17.1,40.8-20.6c0.9-0.2,1.9-0.4,2.7-1
		c2.4-1.7,1.7-5.7-0.3-7.8s-4.9-3.3-7.1-5.3c-4.7-4.2-5.7-11.1-5.9-17.3c-0.5-11.9-4.2-22.9-1.8-34.6c2.1-10.1,6.8-19.9,0.4-28
		c-3.7-4.6-12.7-9.8-18.6-10.5c-5.4-0.7-3.8-0.9-14.9-2.3c-3.8-0.5-24.4,0.4-27.8,1.9c-19,8.4-22.3,12-35.2,18.5"/>
	<path class="st29" d="M946.8,439.2c-0.7-3.9-1.1-7.8-1.9-11.7c-0.6-3.2-3.2-6.4-4.8-9.3c-1.5-2.7-3.6-5-5.4-7.4
		c-2.7-3.7-4.7-7.8-6-12.3c-4,1.5-7.4,4.7-9.2,8.6c-1.7,3.9-1.8,8.6-0.2,12.5c1.2,3,2.7,5.4,5.6,7.9
		C927.5,429.7,946.8,439.2,946.8,439.2z"/>
	<path class="st29" d="M967.1,394.5c0.5-1.5,0-6.9-1.9-9.2c-1.5-1.8-3.8-3.6-7-4.7l-3.4,0.5l-4,5.6L967.1,394.5"/>
	<polygon class="st15" points="978.2,451.7 954.8,437.5 973.4,439.3 	"/>
	<path class="st5" d="M947.6,429.5c0,0,3.8,8.2,11.4,9.7c7.6,1.4,23.1,1.5,26.4-0.7c3.3-2.1,4.5-7.2,2.1-11.8
		c-2.4-4.6-10.7-20.3-17.1-29.1c-6.4-8.8-14-16.9-26.9-11.6c-12.8,5.2-18.3,17.8-18.3,25.9s15.2,4.3,15.2,4.3s-7.1,2.4-5.4,9.2
		C936.9,433.3,947.6,429.5,947.6,429.5z"/>
	<path class="st29" d="M927,399.4c-0.8-3-0.8-6.3,0.9-8.9c1.6-2.7,5.7-5.9,7.6-8.3c4.2-5.3,7-8.8,10.6-14.5c1.5-2.3,3.2-4.6,5.7-5.6
		c3.4-1.3,7.6,0.4,9.6,3.4c2.1,3,2.3,4.3,1.2,7.8c-1.1,3.5-3.7,6.3-5.9,9.2c-5.9,7.6-18.6,15.1-18.6,15.1s4.9,0.6,7.3,4.6
		c2.4,4.1,1,9.6,1.7,12.3c0.7,2.8,4,6.5,4,6.5l-3.2,0.3l-7.6-5.1l-12.4,4l-4-9.6L927,399.4z"/>
	<path class="st28" d="M1223.7,233.5c-2.9,0.4-4.8,2.2-5.4,4.9c-0.6,2.7,0.7,5.4,0.2,8.1c-0.2,1.2-1.6,3.4-1.4,4.6
		c0.4,2.1,2.5,3.5,4.5,4.3c4.8,2,10.2,3.3,15.5,3.4c6.6,0.1,13.4-1.1,19.3-3.7c2.1-1,4.3-2.6,4.1-4.8c-0.1-1.1-0.9-2.1-1.5-3.1
		c-1.2-2-1.8-4.4-1.6-6.7c0.1-1.6,0.5-3.3-0.5-4.6c-0.5-0.6-1.2-1-2-1.4c-9.3-3.9-20.5,1.1-30.3-1.6"/>
	<path class="st40" d="M1217.2,251c0.4,2.1,2.5,3.5,4.5,4.3c4.8,2,10.2,3.3,15.5,3.4c6.6,0.1,13.4-1.1,19.3-3.7
		c2.1-1,4.3-2.6,4.1-4.8c-0.1-1.1-0.9-2.1-1.5-3.1c-1.2-2-1.8-4.4-1.6-6.7"/>
	<path class="st41" d="M970.5,406.1c1.8,1.7,4.1,2.8,6.6,3c1,0.1,2,0.1,2.8,0.7c1,0.8,0.8,2.6-0.1,3.5c-0.9,0.9-2.3,1.2-3.6,1.2"/>
	<path class="st31" d="M971.8,421.6c3.6,0.6,8.4,0.4,11.1-2.1"/>
	<path class="st31" d="M956.4,408.5c1.4,0.9,3.1,1.1,4.6,0.5s2.6-2.2,2.4-3.8"/>
	<path class="st31" d="M968,402.1c0.8,0.6,1.7,1.2,2.6,1c1.2-0.3,1.8-1.8,1.4-3"/>
	<path class="st31" d="M953.3,404.6c0.4-1.9,1.5-3.7,2.9-5"/>
	<path class="st31" d="M963.9,394.3c0,0,3.3-0.8,4.8,0.2"/>
	<g>
		<path class="st29" d="M1122.7,381c-0.4-0.8-0.7-1.8-1.5-2.2c-0.5-0.3-1.1-0.4-1.7-0.4c-5.1-0.5-10.3-0.9-15.4-1.4
			c-0.9-0.1-2,0.1-2.1,0.9c0,0.3,0.1,0.7,0.3,0.9c5.6,10,21.9,42.8,24.4,42.5c2.5-0.3,11.5-4.2,12.2-5.4
			C1139.7,414.7,1126.6,389.8,1122.7,381z"/>
	</g>
	<path class="st33" d="M1185.1,311.2l-0.9-10.1l67.2,20.9l37.6-2.2c0,0,0.1,6.9,1.5,10.2c4.5,10.1,12.6,9.3,14.2,16.2
		c1.1,4.6-5.1,5.1-5.1,5.1s-18.8,3.4-40.8,20.6C1235,360.1,1185.1,311.2,1185.1,311.2z"/>
	<polygon class="st28" points="1313.7,241.6 1342.1,270.8 1345.2,267.9 1316.9,238.6 	"/>
	<path class="st5" d="M1317,257.9c0.5-1.1,1.1-2.2,2-3c1.3-1.1,16.6-0.1,18.5,0.6c2,0.7,3.8,4.1,5.1,6.9c0.8,1.8,0.1,3.9-1.6,4.8
		c-10,5.4-16.2,11.7-23.7,20.3c-4.8-8.1-9.1-7.6-8-12.8C1309.9,271.4,1314.4,263.1,1317,257.9z"/>
	<path class="st28" d="M1218.4,252.9c0,0-26.8,8.9-33.6,17.2c-6.8,8.3-8.7,27.9,2.1,35c7.6,5,44.9,22.4,66.1,32.2
		c8.9,4.1,19.3,2.1,26-5.1l44.5-47.3l-13.2-14.8l-46.9,35l-44.9-25.4"/>
	<polyline class="st40" points="1310.3,270.1 1263.4,305.1 1218.5,279.6 	"/>
	<path class="st29" d="M1075.3,515.7c0,0-43.2,14.9-92.4,4.3c-20.7-4.4-37.3-8.8-45.2-13.5l-7.3-10.5l110.5-4.4
		c0,0,11.4,9.8,21.4,16.7C1065.5,510.4,1075.3,515.7,1075.3,515.7z"/>
	<path class="st36" d="M1100.3,532.8c-5.7-2.2-18.9-2.8-28.2-5.3c-25.7-7-32.6-18.6-37.5-20.7"/>
	<polygon class="st28" points="992.3,497.1 1044.1,511.8 1019.6,490.8 	"/>
	<path class="st32" d="M1029.9,468.2l-82.5-9.9c-12.4-0.6-22.9,9.1-23.3,21.5v0c-0.4,13.2,10.6,23.8,23.8,22.9l81.8-3.5
		c8.6-0.6,16.9-4,23.4-9.6l61.9-55.2l-10.6-12.8L1029.9,468.2z"/>
	<path class="st5" d="M1262.5,204.7c-4.5-9.2-3.9-17.1-3.9-22.1c0,0,0.5-6.3-9.2-5.5s-27.2,9-27.2,9l-4.5,12.1l3.4,12.9l11.3,11.4
		l25.6-12l4.4-0.5l2.3-2.4L1262.5,204.7z"/>
	<path class="st29" d="M1216.3,189.7c-2.9,0.3-10.5,1.1-10.4,9.5c0,2.9,1.2,5.7,2.9,8.1c1.8,2.6,4,5,6.1,7.3c4.3,4.8,3.8,9,8.2,13.8
		"/>
	<path class="st5" d="M1218.2,205.1c-3.6,0.5-9.8,3.1-7.3,10.1c1.8,4.9,9.2,6.2,12,4.5"/>
	<path class="st29" d="M1217.9,205.1c1.5,3.7,2.3,7,2.9,11c1,6.5-0.8,17.2,4,24.4c3,4.6,7,6.7,10.9,8.3c6.3,2.7,13.4,2.7,16.1,2.5
		c4.1-0.2,9.1-1.7,12.7-3.6c3.6-1.9,9.3-6.5,11.1-10.1c4.7-9.7,1.3-17.5-1.6-21.9c-3-4.4-7.2-7.9-11.5-11c0,0,0.3,4.2-3.1,4.4
		c-2,0.1-2.9-0.5-4.8-1c-4.4-1-9.1,0.2-12.5,3.2c-1.4,1.3-2.6,2.8-4.2,3.8c-3.5,2.2-7.5,1.2-10.6-1.6c-3.1-2.8-5.9-11.1-5.9-11.1"/>
	<path class="st39" d="M1242.9,218.4c3.8,2.1,9,1.4,12.2-1.7"/>
	<path class="st41" d="M1246.2,198.9c0,2.2,1.7,3.3,3.3,4.9c0.7,0.6,1.4,1.1,2,1.8s1.1,1.6,1,2.4c-0.1,1-0.9,1.7-1.8,2.1
		c-0.9,0.3-3,0.3-4.5-0.9"/>
	<path class="st29" d="M1238.7,204.4c1-0.3,1.3-1.3,1.1-2.2c-0.2-0.9-0.9-1.5-1.9-1.3c-0.9,0.3-1.2,1.2-1,2.1
		C1237,203.9,1237.7,204.6,1238.7,204.4z"/>
	<path class="st29" d="M1256.1,200.8c1-0.3,1.3-1.3,1.1-2.2c-0.2-0.9-0.9-1.5-1.9-1.3c-0.9,0.3-1.2,1.2-1,2.1
		C1254.4,200.3,1255.1,201,1256.1,200.8z"/>
	<circle class="st31" cx="1236.6" cy="201.4" r="6.9"/>
	<circle class="st31" cx="1255.3" cy="197.4" r="6.9"/>
	<polygon class="st33" points="1342.6,305.1 1367.9,295.2 1382.7,256.1 1353.2,258.7 	"/>
	<polygon class="st28" points="1354.4,253.7 1335.1,300.9 1342.6,305.1 1360.7,256.7 	"/>
	<path class="st29" d="M1354.4,253.7l30-2.8c0,0,4.6,2.7,4.9,11.9c0.3,9.3,0.3,13.7,2.8,19c2.1,4.5,6.4,7.8,6.4,7.8l-27.9,2.8
		c0,0-5.7-3.6-7.4-13.9c-1.2-7.4-0.8-13.6-2.7-18C1358.6,256.1,1354.4,253.7,1354.4,253.7z"/>
	<line class="st31" x1="1229.6" y1="201.1" x2="1219.4" y2="204.6"/>
	<path class="st31" d="M1243.3,198.7c0,0,0.9-1.5,2.6-1.6c1.6-0.2,2.6,1.1,2.6,1.1"/>
	<path class="st29" d="M1645.3,434.6c0,0,19.6,18.7,32.2,23c12.6,4.3,24.1,7.9,27.7,15.5c3.1,6.5,9.5,14,16,16.2
		c14.9,5.2,38.7-2.4,38.7-2.4s-7.7,11.1-17.6,19.7c-10,8.6-16.2,13.4-16.2,13.4s-24.8-25.3-41-42.7
		C1668.7,459.9,1645.3,434.6,1645.3,434.6z"/>
	<g>
		<path class="st5" d="M1104.4,421.7c5.9-2.5,6.2-13.7,11.6-17c0.8,1.8,1.5,2.4,2.3,4.2c0,0,2.9-2.9,5-5.4c0.8-0.9,3.3-8.3,6-8.6
			c2-0.2,5.4,7.8,5.6,9.2c0.2,1.4-0.3,10.9-2.1,15.1c-0.6,1.5-20.7,12-20.7,12"/>
	</g>
	<path class="st15" d="M1079.9,394.8c0,0,4.8,4.3,6.4-2.1c1.4-5.8,3.9-14.7-2-15.8c-8.1-1.5-6.6-2.8-11.4,4.5
		S1079.9,394.8,1079.9,394.8z"/>
	<path class="st5" d="M1066.6,380.1c1.5-1.7,7.2-6.4,8.8-8c0.4-0.4,0.9-0.7,1.4-0.9c1.8-0.8,6.4-2.6,9.4-3.5c1.3-0.4,3.5-0.9,4,0.4
		c0.2,0.7-0.3,2.4-1.7,3.1c-3.5,1.7-6.2,2.8-8.4,3.9c-2.8,2.5-5,6.3-5.6,7.2c-1.1,1.6-1.2,5.8,0.3,6.9c1.6,1.1,2.1,0.5,3-1.2
		c0.6-1.2,1.3-6.3,1.5-7.6s1.3-2.6,2.6-2.3c1,0.3,1.4,1.4,1.7,2.4c1.2,5.8-0.8,20.6-3.9,25.6c-4.1-1.1-9.4-1.9-13.5-2.9
		c0,0-0.3-7.6-0.7-16.4C1065.2,383.9,1065.3,381.6,1066.6,380.1z"/>
	<path class="st36" d="M1029.3,542c0,0,11.5,10,21.4,12.3c5.7,1.3,11.1-1.2,13.9-6c2.4-4.2,1.8-10.5-0.6-13.4
		c-4.8-5.9-16.5-11.6-16.5-11.6"/>
	<polyline class="st36" points="1079.9,585.3 1166.4,652.7 1160.1,779.1 	"/>
	<path class="st31" d="M1229.1,195.9c2.5-2.9,6.3-4.7,10.2-4.8"/>
	<path class="st31" d="M1258.8,190c-3.2,1.5-7.2,1.4-10.3-0.3"/>
	<path class="st29" d="M1261.4,187.9c-3.2,1.7-14-2.1-15.7-3c-0.9,2.5-3.2,3.6-6.4,4.1s-5.2-1.4-5.2-1.4c-1.1,3.3-3.2,6.4-6.3,7.9
		s-7.3,1.2-9.5-1.5c2.9,3.1,2.4,6.1,4,10.7c-0.8,0.5-2.2,2.5-2.9,3c-2.4-4.2-5.3-8.2-8.6-11.8c-1.2-1.3-2.5-2.6-3.3-4.2
		c-1-2.1-0.3-14.7,8.1-19.6c1.8-1.1,8.8-5.6,16-6.4c2.3-0.2,10,0.1,12.2,0.4c1.7,0.2-0.9,5.4,0.7,6c4.3,1.3,10.8,7.7,15.1,9.1
		C1261.9,181.9,1265.8,185.6,1261.4,187.9z"/>
	<path class="st30" d="M1222.4,186.2c0,0,5.8-8.6,10.2-13.4c2.7-3,7.3-6.3,12.3-8.5c2.4-1.1,6.9-2.3,9.5-2.5
		c2.8-0.2,5.7-0.3,8.3,0.7c2.6,1,4.9,3.4,4.9,6.2c0,2.4-1,5.8-2.5,7.6c-1.7,2-5.5,4.7-5.5,4.7s-7.2-1.7-17.2-0.8
		c-6.3,0.5-15.5,3.9-20.5,7.8"/>
	<g>
		<path class="st29" d="M1777.9,524.9c13.5,5.5,21.3,4.8,16.8,0c-4.5-4.8-14.2-8.6-17.4-13.8c-3.2-5.2-5.8-14.8-16.1-15.5
			c-10.3-0.6-21.9-7.1-25.8-10.3c-3.9-3.2-11.6,11.6-11.6,11.6S1764.4,519.4,1777.9,524.9z"/>
		<path class="st29" d="M1623.9,474.9c-7-3.6-15.1-3.6-18.7,2.5c-3.7,6.1-7.2,20.6-14.7,29.3c-7.5,8.8-2.6,17.9-2.6,17.9
			s28.3-16.5,34.8-27.6C1629.3,485.8,1630,478,1623.9,474.9z"/>
		<path class="st29" d="M1645.2,520.7c13.5,5.5,21.3,4.8,16.8,0c-4.5-4.8-14.2-8.6-17.4-13.8c-3.2-5.2-5.8-14.8-16.1-15.5
			c-10.3-0.6-21.9-7.1-25.8-10.3s-11.6,11.6-11.6,11.6S1631.7,515.2,1645.2,520.7z"/>
		<path class="st32" d="M1610,483.4c3.7-6.1,9.9-11,13.9-8.5l-102.1-62.4l62.2-59l-40-55.1l-66.2,107.6c-6.3,10.2-4.1,23.6,5.1,31.3
			l105.1,87.4c0,0,11.3-8,15.2-17.8C1606.2,499,1607.5,487.7,1610,483.4z"/>
		<polygon class="st29" points="1541.3,302.6 1554.9,381.1 1578.2,359 1543.9,298.4 		"/>
		<path class="st32" d="M1594.6,284.8c0,0,11.9,7.4,20.3,33.8c8.4,26.4,8.8,25.8,20,41.9c28.4,41.1,140.5,112.8,140.5,112.8
			s-13.5,24.5-25.8,37.4c-12.2,12.9-25.1,22-25.1,22s-119.9-122.1-150.2-169c-19.6-30.4-30.3-59.3-32.9-78s-5.7-30.3-5.7-30.3
			l49.5-5.8L1594.6,284.8z"/>
		<path class="st29" d="M1465.4,176.9c0,0-23.9,4.5-43.2-10.3c-19.3-14.8-15.5-31.6,0-36.7c15.5-5.2,32.2,2.6,51.6,0
			c19.3-2.6,32.9-16.8,40-23.9c7.1-7.1,29.7-13.5,38.7-5.8s5.2,16.1,9,25.1c3.9,9,11,18.7,17.4,26.4c6.4,7.7,6.4,18.7,1.9,25.8
			s-37.1,14.8-45,11.6c-7.9-3.2-30.2,5.6-39.2,8.8c-9,3.2-43.4,8-55.6,4.1c-12.2-3.9-9.5-15.3-2.6-17.4
			C1445.5,182.4,1454.5,184,1465.4,176.9z"/>
		<path class="st30" d="M1518.2,230.4c-14.2,13-30,25.3-48.8,29c-6.8,1.4-12.9-2.3-14.9-6.6c-3.1-6.9-2.8-16.6,0-28.2
			c1.6-6.8,4.4-13.3,6.4-20c1.8-6.2,2.9-12.5,5.4-18.5c2.5-5.9,11.2-22.2,17.1-24.7c5.9-2.5,10.5-1.2,13.8,4.3
			c2.7,4.4,0.5,21.1-0.4,26.1c-1.1,5.6-2.2,11.2-3.5,16.8c6.3-6.6,12.5-13.3,18.8-19.9c2.8-3,6.3-6.2,10.3-5.5
			c2.9,0.5,5,2.9,6.6,5.3c5.1,7.3,8.5,16.2,7,25S1527.1,230.2,1518.2,230.4"/>
		<path class="st12" d="M1517.3,215.2c0,0-6.1,7.1-15.2,20c-10.5,14.9-20.4,20.5-20.4,20.5s14.9-6.6,25.7-15.9
			c10.8-9.4,16.8-13.9,16.8-13.9L1517.3,215.2z"/>
		<path class="st30" d="M1532.6,274.1c1.4,7,10.7,8.4,17.8,8.2c17.2-0.4,35.9-1.4,49-12.6c1.9-1.6,3.6-3.4,4.5-5.7
			c2.8-7.2-3.7-14.2-6.6-21.4c-3.8-9.6-1-20.4-1.8-30.6c-1.1-13.2,2.7-31-9.5-36.2c-11-4.7-32.2-1.1-45.4,0
			c-6.9,0.6-22.3,5-26.2,10.6c-2.9,4.3,2.8,0.4,2.5,5.6c-0.4,8-0.9,16-1.3,24c-0.3,4.7-0.5,9.4,0.8,13.9c2.5,8.7,10.1,14.9,13.9,23
			C1533.3,259.6,1531.2,267.2,1532.6,274.1z"/>
		<path class="st12" d="M1595.8,237.1V218l-20.8-9.3c0,0,3.5,10.9,9,18.4C1589.5,234.7,1595.8,237.1,1595.8,237.1z"/>
		<path class="st5" d="M1670.6,272.6c0,0,1.5,5.2,1.8,9.8s-1.5,11.2,0,12.2c1.5,1.1,2.8,0,3.5-3.4c0.7-3.4-0.2-7,1.7-7.7
			c1.9-0.7,3.9,0.1,5.6,4c1.7,3.9,7.1,13.2,8.8,12.9c1.7-0.3,1.3-2.9,1.3-2.9s2.4,2.7,3.4,1.9s1-2.7,0.3-4.1c0-0.1-1.3-1.3-4-7.1
			c-0.9-2-1.6-4.1-1.6-4.1s2.9,2.9,5.7,5.2c2.8,2.4,4.9,1.2,4.7,0.3c-0.2-0.9-7.4-7.4-10.5-10.9c-5.6-6.3-8.8-12.3-8.8-12.3
			L1670.6,272.6z"/>
		<path class="st30" d="M1667,269.5l3.7,5.8c0,0,3.7,0.2,7.7-3.4c4-3.6,4.2-5.5,4.2-5.5l-4.6-6.3L1667,269.5z"/>
		<g>
			<path class="st5" d="M1549.9,109.5c3.9,2.7,6.6,7.1,7.2,11.8c0.3,2.5,0.1,5.1,0.9,7.5c0.9,2.8,3,5,4,7.7c0.8,2.1,1,4.4,1,6.7
				c0,3.6-3.4,15.8-5.8,17.1c-2.5,1.4-6,0.8-6,0.8c1.2,5.9,2.1,13.6,7.6,12.9c-3.8,3.6-5.8,8.2-10,16.2c-1.6,3-4.7,6.8-7.3,8.9
				c-2.3,1.9-4.1,2.5-7.1,2.6c-8.7,0.4-7.8-15.2-5.1-23.2c5-1.9,2.9-18.6,0.3-30.5c-2,0.7-5.6,0.9-8.2-0.9s-3.6-5.5-2.5-8.5
				c1.1-2.8,5.5-3.2,7.3-2.4c-3.5-6.2-5-11.6-5-18.1c0-1.2,0.1-2.4,0.6-3.4c0.6-1.1,1.6-1.9,2.7-2.6c7.1-4.4,16.2-3.2,24.4-1.9"/>
		</g>
		<g>
			<path class="st29" d="M1526.1,136.3c4.6-5.2,3.7-11.6,0.7-17.1c7.7,0.3,15.4-1.3,22.3-4.7c2.3-1.1,4.5-2.4,6.2-4.3
				c1.9-2.1,3.1-4.8,3.9-7.6c0.7-2.5,1.1-5.2-0.2-7.5c-1.8-3.3-6.5-4.1-10-2.8c-3.5,1.4-6.2,4.3-8.7,7.1c-2.5,2.8-5.2,5.7-8.8,7
				l-14.1,7.7v10.3"/>
		</g>
		<path class="st31" d="M1550.1,131.9c0.6,1.8,1.8,3.4,3.4,4.5c0.4,0.3,0.8,0.5,1.1,0.8c0.7,0.6,1.2,1.5,1.1,2.5
			c-0.1,0.9-0.8,1.8-1.7,2"/>
		<path class="st29" d="M1556.1,131.7c0.7-0.1,0.9-1,0.8-1.8c-0.1-0.8-0.6-1.2-1.2-1.1c-0.7,0.1-0.9,0.6-0.8,1.4
			C1555,131,1555.4,131.8,1556.1,131.7z"/>
		<path class="st29" d="M1541.2,134.3c0.7-0.1,0.9-1,0.8-1.8c-0.1-0.8-0.6-1.2-1.2-1.1c-0.7,0.1-0.9,0.6-0.8,1.4
			C1540.1,133.7,1540.5,134.4,1541.2,134.3z"/>
		<path class="st31" d="M1535.9,129.3c1.7-3.2,4.8-5.3,7-4.6"/>
		<path class="st31" d="M1553.3,123.1c0.8,0.1,3.5-0.5,4.1,0.1"/>
		<path class="st15" d="M1551.1,161c-4-0.6-12.8-3.3-15.5-6.5c0,0,1.7,4.6,7.4,9.6c4.3,3.8,11,7.2,11,7.2L1551.1,161z"/>
		<g>
			<path class="st5" d="M1498.4,159.1c3.8-4.5,7.7-10.7,11.5-15.2c1.6-1.8,5.7-4.6,3.9-6.4c-1.8-1.4-6.7,3.1-9,6.3
				c0.9-6.6,0.3-13.5-3.3-19.2c-0.9-1.3-1.9-2.7-3.3-3.4c-1.4-0.7-4.3,0.2-5.4,1.3c-1.2,1.2-1.3,3.1-1.2,4.8
				c0.1,2.9,0.1,5.7,0.2,8.6c-1.6-5.1-4.2-12-6.3-11.3c-1.1,0.2-0.2,1.8,0.1,2.9c1.2,4,2.8,7.5,3.2,11.6c0.2,1.6,0.1,3.2-0.1,4.7
				c-0.3,3.9-1.4,9.1-1.7,12.9"/>
		</g>
		<path class="st30" d="M1487,154.5c3.8,3.5,7.1,3.6,12.3,3.7c-0.6,1.8-1.7,7.4-2.1,7.5c-4.6,0.8-9.6-0.4-13.4-3.2L1487,154.5z"/>
		<path class="st36" d="M1594.6,285.2c-8.2,7.2-18.9,9.5-28.5,9.8c-7.4,0.2-14.8,0.1-22.2-0.5"/>
		<g>
			<g>
				<path class="st29" d="M1438.8,120.9c7.6,3.5,15.4,6.8,23.7,8.3c7.1,1.3,14.4,1.2,21.6,1c1.9-0.1,1.9-3.1,0-3
					c-6.9,0.2-13.9,0.3-20.8-0.9c-8-1.4-15.6-4.6-23-8C1438.5,117.5,1437,120.1,1438.8,120.9L1438.8,120.9z"/>
			</g>
		</g>
		<path class="st34" d="M1525.5,145.2c-0.5-0.5-0.6-1.3-0.2-1.9c0.4-0.6,1.2-0.8,1.8-0.5c-0.2-1.1-0.4-2.3-1.5-3.4
			c-1.2-1.1-2.9-0.8-3.4-0.6c-0.9,0.5-0.9,1.9-0.7,2.4"/>
		<path class="st30" d="M1570.7,188.4c-3.3,8.6,1.4,18.3,8.1,24.6c6.7,6.3,15.2,10.2,22.5,15.7c10.7,8.1,18.7,19.5,29.8,27
			c9.4,6.4,20.6,9.8,31.6,13c1.7,0.5,3.5,1,5.2,0.8c1.6-0.2,3-0.9,4.3-1.8c4.3-2.9,7.6-8.5,5.7-13.3c-1.3-3.3-4.5-5.2-7.2-7.5
			c-5.6-4.9-9-11.8-13.1-18c-15.9-24.2-42.8-38.4-68.5-51.6c-3.3-1.7-7-3.4-10.6-2.5c-5.1,1.3-7.3,7.3-8,12.6"/>
		<path class="st36" d="M1508.9,421.5c0,0,9.5-5.2,13.7-9.4"/>
		<path class="st36" d="M1583.1,292.4c6,14.6,14.9,50.3,52.7,93c37,41.8,79.7,71,121.9,107.4"/>
		<path class="st36" d="M1559.7,295.2c0,0,1.3,6.1,10.2,8.9c8.9,2.9,16.5-0.3,16.5-0.3"/>
		<path class="st12" d="M1667.8,244.3c-5.3,0.8-7.1-9.2-12.4-8.8c-4.6,0.3-5.1,7.7-9.3,9.6c-2.2,1-5,0-6.6-1.8s-2.4-4.3-2.7-6.7
			c-0.8-6.4,0.8-12.8,0.8-19.2s-6-14.5-11.4-19.1c0,0,18.7,11.4,28.4,26.2S1667.8,244.3,1667.8,244.3z"/>
		<path class="st12" d="M1493.3,208.6l-18.1,18.2c0,0-4-8.7,4.6-16.2c7.5-6.5,14.8-8,14.8-8C1494.1,205.9,1493.3,208.6,1493.3,208.6
			z"/>
		<path class="st31" d="M1546,148.5c2.3,1,4.9,1.4,7.5,1.1"/>
	</g>
	<g>
		<path class="st5" d="M1553.4,540.4c-1.2,4.2-4.7,7.6-6.9,11.2c-1.3,2.1,1,4.3,3.2,4s1.2-0.9,2.2-2.8"/>
		<path class="st5" d="M1553.6,523.5c0,0-3,9.7-2.5,19.2c0.4,8-4,15.5-2.3,20.9c3.8,12,40.7,2.9,40.7,2.9l-15-27.9L1553.6,523.5z"/>
		<polygon class="st5" points="1565.4,575.3 1557,598.9 1593.6,613.3 1596.4,581.9 		"/>
		<path class="st29" d="M1559,532.1c0,0-7.6,0.9-13.2-3.5c-8.1-6.5,0-22.7,20.7-24.6c19-1.7,36.2,2.6,44.4,12.9
			c9.3,11.6,10,26.8,12.4,36.1c2.4,9.3,8.1,20.1,6.2,27c-2.6,10-9.7,10.6-16.2,9.5s-11.6-6.5-11.6-6.5s-7.7,9.4-24.7,9.4
			c-13.6,0.1-19.8-8.1-19.8-8.1s-8,4.7-16.3-1.5c-5.3-4-4.2-13.5,1.9-18s10.6-7.7,13.9-15.5S1559,532.1,1559,532.1z"/>
		<path class="st12" d="M1442.7,747.8l-43.8,72.6l-36.3,105.2c0,0,7.2-1.6,14.1,0.9c10.2,3.8,9.3,8.4,9.3,8.4l45.5-90l70.1-62.6
			L1442.7,747.8z"/>
		<polygon class="st5" points="1389.9,803.1 1390.1,827.8 1405.2,823.4 1410.7,796.5 1395.7,796.4 		"/>
		<path class="st30" d="M1490.2,715.5l-57.5-66.6c0,0-19.4-20.7-36.3-11.3c-16.9,9.4-12.5,27.6-12.5,33.2c0,5.6,6.3,135.2,6.3,135.2
			s7.3,3,12,3.2c8.5,0.4,12.4-2.4,12.4-2.4l11.3-76.6c0,0,19.4,34.7,31.3,47.9s40.1,31,71.4,25.4c31.3-5.6,41-40.1,41-40.1
			L1490.2,715.5z"/>
		<path class="st5" d="M1579.8,815.8c-4.3,4.7-10.9,15.6-7.2,17.2c5.9,2.6,7.9-12.9,14.8-10c2.1,0.9,0.2,4.6-3.7,9.2
			c-3.9,4.6-13,13-11,16.2c1.6,2.5,14.1-4.6,19.1-11.4c-3.4,5.3-15.7,9.9-13.3,13.1c1.7,2.3,16.9-4.1,21.6-10.3s5.2-13.4,7.5-20.8
			c0.6-2,1.2-4.3,0.2-6.2c-0.8-1.4-2.3-2.2-3.8-3C1593,804.3,1588.4,806.3,1579.8,815.8z"/>
		<path class="st28" d="M1598.6,791.7l-8.1,15.2c0,0,1.8,6.7,8.1,9.8c6.3,3.1,12.5,0,12.5,0l11.3-11.8L1598.6,791.7z"/>
		<path class="st33" d="M1603.1,784.2l-8.3,14.9c0,0,1.6,8.1,6.6,13c4.6,4.6,9.8,4.6,9.8,4.6l11.3-11.8L1603.1,784.2z"/>
		<path class="st28" d="M1595.8,688.4l30.4,43.8c0,0-14.4,7.9-12.8,23.2c0,0-13.4,10.6-18.2,21.3c-2.4,5.3-5.3,23.6,8.5,30.3
			c13.8,6.7,32.6,0.4,35.7-12.7s14.5-26.8,20.6-35.7c10-14.4,4.7-32.9,0-48.2c-9.4-30.7-38.8-88.8-38.8-88.8L1595.8,688.4z"/>
		<path class="st5" d="M1412.5,557.3c0,0-8-25.6-8-35.5c0-5.8,22.1-24.7,22.1-24.7l7.8,30.3l-8.1,19.4L1412.5,557.3z"/>
		<path class="st5" d="M1412.5,557.3c0,0-8-25.6-8-35.5c0-5.8,22.1-24.7,22.1-24.7l7.8,30.3l-8.1,19.4L1412.5,557.3z"/>
		<path class="st29" d="M1433,551.7l66.7-5c3-0.2,4.7-2.8,4-5.7l-22.6-88.6c-0.7-2.9-3.7-5.1-6.7-4.9l-66.7,5c-3,0.2-4.7,2.8-4,5.7
			l22.6,88.6C1427,549.7,1430,551.9,1433,551.7z"/>
		<polygon class="st24" points="1499,538.8 1430.1,544.2 1408.3,458.9 1477.2,453.5 		"/>
		<polygon class="st1" points="1462.4,517 1427,519.7 1421.2,497.2 1456.7,494.4 		"/>
		<polygon class="st1" points="1489,515 1463.7,516.9 1457.9,494.3 1483.2,492.4 		"/>
		<polygon class="st32" points="1429.2,469.8 1414.6,470.9 1412.9,464.5 1427.5,463.4 		"/>
		<polygon class="st3" points="1445,468.6 1430.4,469.7 1428.8,463.3 1443.4,462.2 		"/>
		<polygon class="st30" points="1460.8,467.4 1446.2,468.5 1444.6,462.1 1459.2,461 		"/>
		<polygon class="st29" points="1476.6,466.2 1462,467.3 1460.4,460.9 1475,459.7 		"/>
		<polygon class="st1" points="1482.9,491.3 1420.9,496 1415.1,473.5 1477.2,468.7 		"/>
		<polygon class="st1" points="1495.1,539.1 1433,543.9 1427.3,521.3 1489.3,516.6 		"/>
		<path class="st3" d="M1419,482.5c0,0-0.2-3.7,4-4c4.2-0.3,12.4,9.4,17.3,9s4.7-11.8,17.1-12.7c12.4-1,19.5,5.9,21.6,6.9l1.5,6
			l-59.1,4.6L1419,482.5z"/>
		<path class="st3" d="M1474.8,514c-4.8,0-9.4-3.5-10.6-8.3c-0.5-1.9-0.4-3.8,0.3-5.5c1.2-2.9,3.8-4.7,7-5c2.5-0.2,5.1,0.6,7.2,2.2
			c2.1,1.6,3.5,3.7,4.2,6.1c0.9,3.5-0.2,6.9-2.9,8.9c-1.2,0.9-2.7,1.4-4.3,1.6C1475.3,514,1475,514,1474.8,514z M1472.1,499.1
			c-0.1,0-0.3,0-0.4,0c-1.8,0.1-3.1,1.1-3.7,2.6c-0.4,0.9-0.4,2-0.1,3.1v0c0.8,3.2,4.2,5.6,7.4,5.4c0.9-0.1,1.7-0.4,2.4-0.8
			c1.4-1,2-2.8,1.5-4.8c-0.4-1.5-1.4-2.9-2.7-4C1475.1,499.6,1473.6,499.1,1472.1,499.1z"/>
		<path class="st29" d="M1468,501.7l-3.6-1.4c1.2-2.9,3.8-4.7,7-5l0.3,3.8C1469.9,499.3,1468.6,500.2,1468,501.7z"/>
		<path class="st30" d="M1479.9,512.4l-2.3-3.1c1.4-1,2-2.8,1.5-4.8c-0.4-1.5-1.4-2.9-2.7-4l2.3-3.1c2.1,1.6,3.5,3.7,4.2,6.1
			C1483.7,507.1,1482.6,510.5,1479.9,512.4z"/>
		<path class="st32" d="M1476.3,500.6c-1.4-1-3.1-1.6-4.6-1.5l-0.3-3.8c2.5-0.2,5.1,0.6,7.2,2.2L1476.3,500.6z"/>
		<polygon class="st32" points="1436.3,519 1432.8,519.3 1431.8,515.1 1435.3,514.8 		"/>
		<polygon class="st29" points="1434.7,512.7 1431.2,513 1431.8,515.1 1435.3,514.8 		"/>
		<polygon class="st30" points="1434.7,512.7 1431.2,513 1429.7,507.2 1433.2,506.9 		"/>
		<polygon class="st3" points="1432.1,502.4 1428.6,502.6 1429.7,507.2 1433.2,506.9 		"/>
		<polygon class="st32" points="1443.2,518.5 1439.7,518.8 1438.7,514.9 1442.2,514.7 		"/>
		<polygon class="st29" points="1441.7,512.8 1438.2,513 1438.7,514.9 1442.2,514.7 		"/>
		<polygon class="st30" points="1441.7,512.8 1438.2,513 1436.9,507.8 1440.4,507.5 		"/>
		<polygon class="st3" points="1439.3,503.4 1435.8,503.7 1436.9,507.8 1440.4,507.5 		"/>
		<polygon class="st32" points="1449.9,518 1446.4,518.2 1445.7,515.4 1449.2,515.1 		"/>
		<polygon class="st29" points="1448.8,513.7 1445.3,514 1445.7,515.4 1449.2,515.1 		"/>
		<polygon class="st30" points="1448.8,513.7 1445.3,514 1444.3,510 1447.8,509.8 		"/>
		<polygon class="st3" points="1447,506.7 1443.5,506.9 1444.3,510 1447.8,509.8 		"/>
		<polygon class="st32" points="1456.6,517.4 1453.1,517.7 1452.1,514.1 1455.6,513.8 		"/>
		<polygon class="st29" points="1455.2,512 1451.7,512.3 1452.1,514.1 1455.6,513.8 		"/>
		<polygon class="st30" points="1455.2,512 1451.7,512.3 1450.4,507.3 1453.9,507 		"/>
		<polygon class="st3" points="1452.9,503.1 1449.4,503.3 1450.4,507.3 1453.9,507 		"/>
		<g>
			<path class="st3" d="M1418.7,519.2c2,0,4.6-1.2,5.8-2.1c2-1.5,2.2-2.3,4.1-4c2.1-1.9,4.8-1.6,4.8,1c0,3.7-2.2,6.5-4.7,9.1
				c-2.6,2.7-3.2,7.8-6.2,11.3"/>
		</g>
		<path d="M1433,551.7l66.7-5c3-0.2,4.7-2.8,4-5.7l-22.6-88.6c-0.7-2.9-3.7-5.1-6.7-4.9l-66.7,5c-3,0.2-4.7,2.8-4,5.7l22.6,88.6
			C1427,549.7,1430,551.9,1433,551.7z"/>
		<polygon class="st24" points="1499,538.8 1430.1,544.2 1408.3,458.9 1477.2,453.5 		"/>
		<polygon class="st1" points="1462.4,517 1427,519.7 1421.2,497.2 1456.7,494.4 		"/>
		<polygon class="st1" points="1489,515 1463.7,516.9 1457.9,494.3 1483.2,492.4 		"/>
		<polygon class="st6" points="1429.2,469.8 1414.6,470.9 1412.9,464.5 1427.5,463.4 		"/>
		<polygon class="st3" points="1445,468.6 1430.4,469.7 1428.8,463.3 1443.4,462.2 		"/>
		<polygon class="st5" points="1460.8,467.4 1446.2,468.5 1444.6,462.1 1459.2,461 		"/>
		<polygon class="st12" points="1476.6,466.2 1462,467.3 1460.4,460.9 1475,459.7 		"/>
		<polygon class="st1" points="1482.9,491.3 1420.9,496 1415.1,473.5 1477.2,468.7 		"/>
		<polygon class="st1" points="1495.1,539.1 1433,543.9 1427.3,521.3 1489.3,516.6 		"/>
		<path class="st3" d="M1419,482.5c0,0-0.2-3.7,4-4c4.2-0.3,12.4,9.4,17.3,9s4.7-11.8,17.1-12.7c12.4-1,19.5,5.9,21.6,6.9l1.5,6
			l-59.1,4.6L1419,482.5z"/>
		<path class="st3" d="M1474.8,514c-4.8,0-9.4-3.5-10.6-8.3c-0.5-1.9-0.4-3.8,0.3-5.5c1.2-2.9,3.8-4.7,7-5c2.5-0.2,5.1,0.6,7.2,2.2
			c2.1,1.6,3.5,3.7,4.2,6.1c0.9,3.5-0.2,6.9-2.9,8.9c-1.2,0.9-2.7,1.4-4.3,1.6C1475.3,514,1475,514,1474.8,514z M1472.1,499.1
			c-0.1,0-0.3,0-0.4,0c-1.8,0.1-3.1,1.1-3.7,2.6c-0.4,0.9-0.4,2-0.1,3.1v0c0.8,3.2,4.2,5.6,7.4,5.4c0.9-0.1,1.7-0.4,2.4-0.8
			c1.4-1,2-2.8,1.5-4.8c-0.4-1.5-1.4-2.9-2.7-4C1475.1,499.6,1473.6,499.1,1472.1,499.1z"/>
		<path class="st12" d="M1468,501.7l-3.6-1.4c1.2-2.9,3.8-4.7,7-5l0.3,3.8C1469.9,499.3,1468.6,500.2,1468,501.7z"/>
		<path class="st5" d="M1479.9,512.4l-2.3-3.1c1.4-1,2-2.8,1.5-4.8c-0.4-1.5-1.4-2.9-2.7-4l2.3-3.1c2.1,1.6,3.5,3.7,4.2,6.1
			C1483.7,507.1,1482.6,510.5,1479.9,512.4z"/>
		<path class="st6" d="M1476.3,500.6c-1.4-1-3.1-1.6-4.6-1.5l-0.3-3.8c2.5-0.2,5.1,0.6,7.2,2.2L1476.3,500.6z"/>
		<polygon class="st6" points="1436.3,519 1432.8,519.3 1431.8,515.1 1435.3,514.8 		"/>
		<polygon class="st12" points="1434.7,512.7 1431.2,513 1431.8,515.1 1435.3,514.8 		"/>
		<polygon class="st5" points="1434.7,512.7 1431.2,513 1429.7,507.2 1433.2,506.9 		"/>
		<polygon class="st3" points="1432.1,502.4 1428.6,502.6 1429.7,507.2 1433.2,506.9 		"/>
		<polygon class="st6" points="1443.2,518.5 1439.7,518.8 1438.7,514.9 1442.2,514.7 		"/>
		<polygon class="st12" points="1441.7,512.8 1438.2,513 1438.7,514.9 1442.2,514.7 		"/>
		<polygon class="st5" points="1441.7,512.8 1438.2,513 1436.9,507.8 1440.4,507.5 		"/>
		<polygon class="st3" points="1439.3,503.4 1435.8,503.7 1436.9,507.8 1440.4,507.5 		"/>
		<polygon class="st6" points="1449.9,518 1446.4,518.2 1445.7,515.4 1449.2,515.1 		"/>
		<polygon class="st12" points="1448.8,513.7 1445.3,514 1445.7,515.4 1449.2,515.1 		"/>
		<polygon class="st5" points="1448.8,513.7 1445.3,514 1444.3,510 1447.8,509.8 		"/>
		<polygon class="st3" points="1447,506.7 1443.5,506.9 1444.3,510 1447.8,509.8 		"/>
		<polygon class="st6" points="1456.6,517.4 1453.1,517.7 1452.1,514.1 1455.6,513.8 		"/>
		<polygon class="st12" points="1455.2,512 1451.7,512.3 1452.1,514.1 1455.6,513.8 		"/>
		<polygon class="st5" points="1455.2,512 1451.7,512.3 1450.4,507.3 1453.9,507 		"/>
		<polygon class="st3" points="1452.9,503.1 1449.4,503.3 1450.4,507.3 1453.9,507 		"/>
		<g>
			<path class="st5" d="M1418.7,519.2c2,0,4.6-1.2,5.8-2.1c2-1.5,2.2-2.3,4.1-4c2.1-1.9,4.8-1.6,4.8,1c0,3.7-2.2,6.5-4.7,9.1
				c-2.6,2.7-3.2,7.8-6.2,11.3"/>
		</g>
		<path class="st33" d="M1606.5,644.4l-10.7,44l30.4,43.8c0,0-8.4-16.7-8.8-34.4c-0.4-19.4,3.2-33.6,3.2-33.6L1606.5,644.4z"/>
		<path class="st12" d="M1499.1,760.9c9.6,11.4,22.2,20,35.6,26.8c5.9,3,15.9,5.2,15.9,5.2c2.1-1.2,8.8-9.1,10.2-11.1
			c6.9-9.9,8.6-18.3,8.6-18.3c0-1.8-41.4-19.9-45.5-21.7c-7.2-3.2-14.3-6.6-21.4-10.1c-5.5-2.7-10.2-10.3-16-10.3
			C1485.9,734.9,1490.6,750.8,1499.1,760.9z"/>
		<path class="st28" d="M1515.2,598.2h50.6l26.5,7.5l29,15.7c0,0,5,16.8,1.2,36.2s-18.1,29.3-22.5,44.1s-3.2,41.1-11.3,54.2
			c-6.5,10.6-41.7,16.9-73.4,0c-31.7-16.9-31.4-36.6-26.7-51.6c4.7-15,15.7-15,19.6-34.7c3.9-19.7-11.3-29.1-5.9-43.2
			C1507.5,612.3,1515.2,598.2,1515.2,598.2z"/>
		<path class="st39" d="M1621.3,623.3c0,0,5,14.9,1.2,34.4s-18.1,29.3-22.5,44.1"/>
		<g>
			<g>
				<path class="st29" d="M1613.8,527.5c2.8,11.5,8.2,23.4,18.4,30.1c1.6,1.1,3.1-1.5,1.5-2.6c-9.5-6.2-14.4-17.6-17-28.3
					C1616.2,524.9,1613.3,525.7,1613.8,527.5L1613.8,527.5z"/>
			</g>
		</g>
		<g>
			<path class="st28" d="M1550.9,598.8c2.3-2.3,4.7-4.5,7-6.8c0.3-0.3,0.7-0.7,1.2-0.8c0.5-0.1,0.9,0.1,1.3,0.3
				c11.2,5.1,23.7,7.2,35.9,5.9c4.6,0.8,2.2,7.3,2.8,11.1c0.1,0.9,0.2,1.8-0.2,2.6c-0.5,0.8-1.5,1-2.4,1.2
				c-15.9,2.9-32.5-3.2-45-13.5"/>
		</g>
		<path class="st28" d="M1515.7,598.2c0,0,6.4,6.7,5.1,25.1c-1.4,19.2-12.6,32.5-12.6,32.5s-17-5.5-31.2-7.5
			c-14.3-2-24.7-3.6-24.7-3.6c-13.7-2.4-24.8-12.4-28.7-25.7c0,0-17.9-34.7-16.6-54.6c0.5-8.1,3.3-14.8,10.9-17.5l1.2,0.4
			c8.6-3,15.7,10.2,22.1,16.7c17.4,17.7,16.4,34.1,16.4,34.1H1515.7z"/>
		<path class="st39" d="M1515.7,598.2c0,0,9.2,3.9,7.9,22.2c-1.4,19.2-15.4,35.4-15.4,35.4"/>
		<path class="st12" d="M1425.8,730.3c-13.7-25.5-18.7-32.9-26.2-52.6l19.8,96.3L1425.8,730.3z"/>
		<path class="st32" d="M1383.2,876.5c-4.5-1-7.4-5.7-7.7-10.3c-0.3-4.6,1.4-9,3.4-13.2c2-4.1,4.3-8.2,5.3-12.7
			c1.1-5.1,0.6-11,4.2-14.8c1.8-1.9,4.4-2.9,6.9-3.8c3.9-1.4,8.1-2.8,12.2-1.9c2.9,0.6,5.8,2.8,6.1,5.7"/>
		<path class="st29" d="M1385.4,848.9c7.2-14.2,14.6-26.9,21.5-27.4c7-0.6,9.3,5.9,4.5,16.9s-16.7,39.4-25.2,39.1
			c-8.5-0.3-9.9-9.3-8.2-15S1385.4,848.9,1385.4,848.9z"/>
	</g>
	<polygon class="st12" points="1291.9,379.2 1296.6,401.3 1344.8,382.6 	"/>
	<path class="st30" d="M1308.8,562.8c0,0-42.3-137.4-45.4-153.1c-3.1-15.6,13.5-35.9,32.9-30c19.4,5.9,15.3,26.9,17.2,43.1
		c1.9,16.3,13.5,133,13.5,133s0.6,8.5-7,9.8C1310.5,567.4,1308.8,562.8,1308.8,562.8z"/>
	<path class="st30" d="M1313.7,241.6l3.6-2.6l-2.1-2.2c-0.7-0.8-1.9-0.8-2.6-0.1l0,0c-0.8,0.7-1.8,1.9-1,2.7L1313.7,241.6z"/>
	<path class="st30" d="M1643.3,163.8h-24.1c-4.2,0-7-3.4-6.3-7.6l3.2-18.2c0.8-4.2,4.8-7.6,9-7.6h24.1c4.2,0,7,3.4,6.3,7.6
		l-3.2,18.2C1651.5,160.4,1647.5,163.8,1643.3,163.8z"/>
	<path class="st32" d="M1687.2,116.8h-24.6c-5.3,0-8.8-4.3-7.9-9.6l4.1-22.9c0.9-5.3,6-9.6,11.3-9.6h24.6c5.3,0,8.8,4.3,7.9,9.6
		l-4.1,22.9C1697.5,112.5,1692.5,116.8,1687.2,116.8z"/>
	<g>
		<path class="st27" d="M1639.3,137.1c0.2,0,0.5,0,0.7,0c0.1,0,0.1,0.1,0.2,0.1c1.1,0.1,2.1,0.6,2.9,1.4c0.1,0.1,0.2,0.1,0.4,0.1
			c0.9-0.2,1.8-0.5,2.6-1c0.1,0,0.1-0.1,0.2-0.1c-0.3,1.1-1,1.9-2,2.6c0.9-0.1,1.8-0.3,2.7-0.7c-0.1,0.1-0.1,0.1-0.1,0.2
			c-0.6,0.8-1.3,1.5-2.1,2.1c-0.2,0.1-0.2,0.2-0.2,0.4c0,0.4,0,0.8,0,1.3c-0.1,1.5-0.4,2.9-1,4.3c-1.3,3.2-3.4,5.7-6.4,7.3
			c-2.5,1.3-5.3,1.8-8.1,1.5c-2-0.2-3.9-0.8-5.6-1.8c-0.1-0.1-0.2-0.1-0.3-0.2c0,0,0,0,0-0.1c1.3,0.1,2.5,0,3.7-0.4
			c1.2-0.4,2.3-0.9,3.3-1.7c-0.1,0-0.1-0.1-0.2-0.1c-1-0.1-1.9-0.4-2.7-1c-0.7-0.5-1.2-1.2-1.5-2c-0.1-0.2-0.1-0.3,0.2-0.2
			c0.4,0,0.7,0,1.1,0c0.2,0,0.5-0.1,0.7-0.1c0,0,0-0.1,0-0.1c-1.1-0.3-2.1-0.8-2.8-1.7c-0.7-0.9-1.1-1.9-1.1-3.1
			c0.4,0.1,0.7,0.3,1.1,0.4c0.3,0.1,0.7,0.1,1.1,0.2c0,0,0-0.1,0-0.1c-1-0.8-1.7-1.7-2-3c-0.3-1.2-0.1-2.4,0.6-3.5
			c0.1,0,0.1,0.1,0.1,0.2c1.4,1.7,3.1,2.9,5.1,3.8c1.5,0.6,3,1,4.6,1.1c0.3,0,0.3,0,0.3-0.3c0-0.5-0.1-1,0-1.6
			c0.2-2,1.8-3.7,3.7-4.1C1638.8,137.2,1639,137.2,1639.3,137.1z"/>
	</g>
	<path id="f_2_" class="st1" d="M1681,116.8l2.8-15.9h5.3l1.9-6.2h-6.1l0.7-4c0.3-1.8,1-3,3.6-3l3.3,0l1-5.5
		c-0.6-0.1-2.5-0.2-4.7-0.2c-4.7,0-8.5,2.9-9.4,8.2l-0.8,4.6h-5.4l-1.1,6.2h5.4l-2.8,15.9H1681z"/>
	<g>
		<path class="st28" d="M1679.9,209.5h32.5c4.2,0,7-3.4,6.3-7.6l-3.2-18.2c-0.8-4.2-4.8-7.6-9-7.6h-32.5c-4.2,0-7,3.4-6.3,7.6
			l3.2,18.2C1671.6,206.1,1675.7,209.5,1679.9,209.5z"/>
		<circle class="st27" cx="1703.1" cy="192.7" r="2.5"/>
		<circle class="st27" cx="1693" cy="192.7" r="2.5"/>
		<circle class="st27" cx="1682.9" cy="192.7" r="2.5"/>
		<path class="st28" d="M1696.8,208.4l1.9,7.6c0,0-3.7-1-6-3.8c-2.3-2.8-2.5-4.9-2.5-4.9L1696.8,208.4z"/>
	</g>
	<g>
		<path class="st30" d="M1085.6,353.8l44.8-6.8c5.8-0.9,9-6.2,7-11.8l-8.3-24.4c-1.9-5.7-8.2-9.5-14-8.6l-44.8,6.8
			c-5.8,0.9-9,6.2-7,11.8l8.3,24.4C1073.5,350.8,1079.8,354.7,1085.6,353.8z"/>
	</g>
	<g>
		<path class="st28" d="M1092.4,292.3l44.8-6.8c5.8-0.9,9-6.2,7-11.8l-8.3-24.4c-1.9-5.7-8.2-9.5-14-8.6l-44.8,6.8
			c-5.8,0.9-9,6.2-7,11.8l8.3,24.4C1080.3,289.4,1086.6,293.2,1092.4,292.3z"/>
	</g>
	<path class="st27" d="M1096.2,311.4c-8.8,1.7-14.5,10.3-12.8,19.1c1.7,8.8,10.3,14.5,19.1,12.8c8.8-1.7,14.5-10.3,12.8-19.1
		C1113.5,315.4,1105,309.7,1096.2,311.4z M1102,340.6L1102,340.6C1102,340.6,1102,340.6,1102,340.6
		C1102,340.6,1102,340.6,1102,340.6L1102,340.6c-7.1,1.4-11.3-2.7-11.3-2.7l6.4-5.1c0.4-0.3,0.5-0.8,0.5-1.2l-0.4-2
		c-0.1-0.4-0.3-0.7-0.7-0.9c-0.9-0.5-2.9-1.8-3.5-5c-0.8-4.2,1.4-6.8,4.2-7.4c2.8-0.6,5.8,1,6.7,5.2c0.6,3.2-0.7,5.1-1.3,5.9
		c-0.3,0.3-0.3,0.7-0.3,1.1l0.4,2c0.1,0.5,0.4,0.8,0.9,1l7.9,2.3C1111.4,333.8,1109.1,339.2,1102,340.6z"/>
	<path class="st30" d="M1099.3,350.3l8,6.4c1.2,1,3,0.6,3.7-0.8l4.8-9.4L1099.3,350.3z"/>
	<circle class="st27" cx="1121.8" cy="264.5" r="3.4"/>
	<circle class="st27" cx="1108.5" cy="266.5" r="3.4"/>
	<circle class="st27" cx="1095.1" cy="268.4" r="3.4"/>
	<path class="st42" d="M1462.6,782.8c0.2-2.7,1.2-5.6,3.5-7.7c4.5-4.2,11.3-7.2,15.3-9.1c7.2,7.7,15.9,14.1,25.4,18.8
		c-8.5,6.2-16.1,10.4-24.3,11"/>
	<path class="st42" d="M1509.5,803.9c0.2-0.5,0.6-1.1,1-1.6c3.3-4.3,12-11.1,12-11.1c9.5,5,16.8,6.1,23.2,4.9"/>
	<path class="st42" d="M1395.6,806.9c-1.6-44.1-1.3-89.1-2.9-133.2c-0.1-1.7,0.8-5.4,1.7-6.9c1.4-2.6,4.9-3.3,7.7-2.3
		c2.8,0.9,4.9,3.1,6.8,5.3c19.3,21.4,29.8,48.6,45.5,72.8c1.8,2.8,4.7,5.6,7.5,7.4c5.1,3.3,12,2.4,17.1-0.8
		c5.1-3.2,8.7-8.3,11.8-13.4"/>
	<path class="st33" d="M1452.2,644.8c0,0,15,0.7,23.2-3.5c8.2-4.2,18.1-3.4,24.5-0.6c6.1,2.6,8.3,15.2,8.3,15.2L1452.2,644.8z"/>
	<path class="st33" d="M1457.4,598.2c0,0-9,0.8-13.9-8.2s-2.7-11.7-2.6-18.3c0.1-6.7-4.6-13.1-4.6-13.1s12.9,12.1,16.4,21.7
		C1456.4,589.9,1457.4,598.2,1457.4,598.2z"/>
	<path class="st33" d="M1613.3,755.3c0,0,3,12.9,1,18.6c-2.1,5.7-5.9,5.7-6.9,0.7c-0.5-2.9-5.5-8.2-5.5-8.2L1613.3,755.3z"/>
	<path class="st33" d="M1508.1,669.6c0,0,7.8,45.9,1.4,50.4c-8.4,5.9-14.4-27.2-14.4-27.2s2.4-2.6,6.5-7.6
		C1505.6,680.2,1508.1,669.6,1508.1,669.6z"/>
	<path class="st43" d="M1301,379.7c18.3-7.9,43.1-22.4,54.1-14.3c9.9,7.4-6.3,87.8-8,131.7"/>
	<path class="st31" d="M1550.9,537.9c1.7,0.1,3.4,0.6,4.7,1.6"/>
</g>
</svg>
