<?xml version="1.0" standalone="no"?>
<!DOCTYPE svg PUBLIC "-//W3C//DTD SVG 20010904//EN"
 "http://www.w3.org/TR/2001/REC-SVG-20010904/DTD/svg10.dtd">
<svg version="1.0" xmlns="http://www.w3.org/2000/svg"
 width="653.000000pt" height="653.000000pt" viewBox="0 0 653.000000 653.000000"
 preserveAspectRatio="xMidYMid meet">
<metadata>
Created by potrace 1.11, written by Peter Selinger 2001-2013
</metadata>
<g transform="translate(0.000000,653.000000) scale(0.100000,-0.100000)"
fill="#000000" stroke="none">
<path d="M2099 4816 c-2 -2 -31 -6 -64 -10 -370 -37 -687 -258 -858 -601 -59
-118 -118 -299 -132 -406 -2 -19 -8 -59 -12 -89 -10 -72 -10 -347 0 -428 68
-566 370 -939 847 -1046 178 -40 377 -41 600 -1 66 12 185 56 264 98 161 86
307 243 389 417 56 121 55 118 76 200 18 67 28 116 45 218 l6 32 -169 0 -168
0 -7 -63 c-28 -278 -196 -512 -432 -605 -151 -60 -380 -65 -549 -14 -214 66
-397 241 -487 467 -99 248 -121 610 -54 890 84 352 337 605 651 652 68 10 238
10 305 -1 148 -22 304 -103 398 -205 60 -66 126 -196 146 -291 l5 -25 153 1
c84 1 159 2 165 3 33 3 -25 206 -94 329 -60 109 -135 194 -239 273 -131 99
-257 149 -489 195 -33 6 -291 15 -296 10z"/>
<path d="M4365 4813 c-60 -7 -190 -36 -245 -53 -383 -124 -584 -447 -506 -818
21 -99 58 -164 141 -247 114 -114 276 -184 600 -260 376 -87 488 -117 564
-149 144 -61 238 -149 260 -244 38 -158 1 -306 -103 -406 -176 -169 -631 -205
-916 -72 -114 53 -215 152 -268 260 -29 60 -59 185 -56 234 1 17 -4 22 -25 23
-26 0 -225 0 -270 -1 -23 0 -23 -1 -17 -77 7 -95 12 -120 36 -203 108 -365
482 -593 975 -594 322 -1 582 79 760 234 85 73 162 181 194 270 38 104 49 308
22 410 -57 216 -224 374 -491 464 -122 41 -384 108 -551 141 -92 18 -273 72
-318 95 -9 4 -29 14 -45 21 -46 22 -125 98 -149 143 -30 56 -31 206 -2 284 47
127 183 222 370 257 59 12 240 13 294 3 25 -5 56 -10 69 -13 88 -16 201 -74
267 -136 75 -71 118 -156 145 -291 6 -32 17 -58 23 -59 17 -1 236 -1 274 0 21
1 31 5 28 14 -2 6 -6 37 -9 67 -17 192 -105 375 -239 495 -101 90 -272 166
-445 196 -57 10 -311 18 -367 12z"/>
</g>
</svg>
